<?xml version="1.0" encoding="utf-8"?>
<!-- Generator: Adobe Illustrator 23.0.3, SVG Export Plug-In . SVG Version: 6.00 Build 0)  -->
<svg version="1.1" id="Layer_1" xmlns="http://www.w3.org/2000/svg" xmlns:xlink="http://www.w3.org/1999/xlink" x="0px" y="0px"
	 viewBox="0 0 813 831.4" style="enable-background:new 0 0 813 831.4;" xml:space="preserve">
<style type="text/css">
	.st0{fill:#1B68B1;}
	.st1{fill:#FFFFFF;stroke:#FAD300;stroke-width:17;stroke-miterlimit:10;}
</style>
<g transform="translate(0.000000,1080.000000) scale(0.100000,-0.100000)">
	<path class="st0" d="M3939.3,10796c-360-53-693-304-987-744c-116-173-210-355-324-625c-65-154-74-170-95-169c-13,1-78,9-144,18
		c-397,55-806,46-1135-23c-141-30-454-163-467-199c-3-7,7-26,23-40c16-15,40-42,54-60l25-32l98,49c54,27,130,59,170,71s83,25,97,30
		c163,52,511,79,795,61c254-16,445-41,445-60c0-3-12-42-26-86s-31-102-39-130c-38-134-67-247-82-310c-8-38-19-86-23-105
		c-39-175-78-394-111-629l-13-93l-146-116c-260-207-411-342-654-585c-226-226-239-237-252-218c-8,11-21,27-29,35s-58,75-111,148
		c-159,221-261,395-357,608c-39,87-68,171-107,310c-20,71-40,217-40,291v76l-57,11c-32,6-70,14-85,18l-28,6v-119
		c0-132,23-275,65-413c15-47,30-96,34-110c17-54,88-211,144-319c96-186,230-392,377-579c100-128,95-119,79-141c-8-11-43-57-79-103
		c-147-187-281-393-377-579c-56-108-127-265-144-319c-4-14-19-63-34-110c-42-137-65-281-65-412c0-90,3-118,13-118c7,0,17,4,23,9
		c5,5,36,13,69,18l60,8l6,100c6,100,21,199,39,265c38,136,68,223,107,310c96,213,198,387,357,608c53,73,103,140,111,148s21,24,29,35
		c13,19,26,8,252-218c243-243,394-378,654-585l146-116l13-93c33-235,72-454,111-629c4-19,15-66,23-105c15-63,44-176,82-310
		c8-27,25-86,39-130s26-83,26-86c0-32-498-74-755-64c-245,10-405,37-605,102c-50,16-186,80-241,113l-36,22l-61-63
		c-34-34-61-64-59-65c20-17,132-81,188-109c79-38,254-100,329-116c329-69,738-78,1135-23c66,9,131,17,144,18c21,1,30-15,95-169
		c191-451,372-741,616-986c194-195,385-311,600-365c112-28,346-26,455,5c223,63,387,163,581,356c244,244,428,537,620,990
		c65,154,74,170,95,169c13-1,78-9,144-18c397-55,809-46,1135,23c62,14,224,68,290,98c70,31,200,105,200,113c0,3-13,13-28,22
		s-45,33-66,52c-20,20-40,36-42,36c-3,0-46-20-97-45c-106-51-188-79-337-114c-163-39-471-57-715-42c-254,16-445,41-445,60
		c0,3,12,42,26,86s31,103,39,130c38,134,67,247,82,310c27,121,30,137,52,250c12,61,26,133,31,160c10,51,29,168,52,329l13,89l145,115
		c260,207,411,342,654,585c216,216,240,236,251,220c7-10,23-29,35-43c96-108,329-467,402-620c95-197,116-253,168-440
		c17-62,40-213,40-268c0-34,5-54,13-56c75-21,105-32,122-43c11-7,23-13,27-13c5,0,8,49,8,108c0,395-234,923-631,1425
		c-43,55-79,103-79,107s36,52,79,107c331,418,552,860,616,1233c18,105,18,367,0,363c-5-1-35-11-65-23c-30-11-63-20-72-20
		c-16,0-18-11-18-92c0-88-19-232-40-308c-52-187-73-243-168-440c-73-153-306-512-402-620c-12-14-28-33-35-43c-11-16-35,4-251,220
		c-243,243-394,378-654,585l-145,115l-13,89c-23,161-42,278-52,329c-58,299-52,272-83,410c-15,63-44,176-82,310c-8,28-25,86-39,130
		s-26,83-26,86c0,19,191,44,445,60c244,15,552-3,715-42c149-35,231-63,337-114c51-25,95-45,99-45c14,0,114,115,110,126
		c-13,33-332,167-466,195c-329,69-738,78-1135,23c-66-9-131-17-144-18c-21-1-30,15-95,169c-192,453-376,746-620,990
		c-195,194-362,296-581,355C4221.3,10794,4015.3,10807,3939.3,10796z M4284.3,10596c301-90,609-383,850-809c30-52,150-292,150-298
		c0-3,13-34,29-69s41-94,55-131l25-68l-25-9c-14-6-32-10-40-10c-17,0-290-66-349-85c-22-7-67-20-100-30c-87-25-368-119-450-150
		c-38-14-88-32-110-40s-82-32-134-55c-52-22-106-40-120-40s-75,21-136,46c-60,25-121,50-135,54c-14,5-56,21-95,35
		c-80,31-361,124-450,150c-33,10-78,23-100,30c-59,19-332,85-349,85c-8,0-26,4-40,10l-25,9l25,68c14,37,32,82,39,98
		c7,17,23,53,35,80c146,333,330,617,528,818C3653.3,10581,3972.3,10688,4284.3,10596z M2720.3,9043c16-5,65-17,109-26
		c75-16,104-24,245-61c252-67,740-237,747-260c1-5-82-50-185-101c-347-169-689-366-1020-586c-106-70-199-130-206-133
		c-13-5-5,64,24,221c32,173,42,224,50,260c5,22,17,74,26,115c21,95,62,257,73,290c5,14,17,52,26,85s26,87,37,120s21,66,23,73
		C2674.3,9054,2682.3,9055,2720.3,9043z M5476.3,8987c11-33,27-82,35-110c8-27,18-63,23-80c5-16,16-57,25-90s21-76,26-95
		c9-33,32-132,49-210c46-211,100-530,90-530c-4,0-96,60-206,133c-332,221-674,418-1026,590c-103,51-186,96-185,101
		c7,21,456,179,712,250c33,9,74,21,90,26c17,4,82,20,145,35c63,14,129,30,145,35C5448.3,9056,5456.3,9050,5476.3,8987z M4202.3,8540
		c447-201,975-504,1392-798l165-117l12-104c33-284,38-408,38-879s-5-595-38-879l-12-104l-165-117c-417-294-945-597-1392-798l-136-62
		l-79,34c-155,66-474,227-703,353c-199,111-545,328-750,473l-165,117l-12,94c-30,252-38,429-38,889s8,637,38,889l12,94l165,117
		c206,145,530,350,755,476c202,113,730,375,773,383C4064.3,8602,4127.3,8574,4202.3,8540z M2165.3,7348c-23-201-34-693-22-1013
		c6-170,16-349,22-399s9-99,8-109c-5-26-284,205-518,430c-106,102-280,279-336,343l-37,42l37,43c88,98,339,349,480,478
		c28,25,122,105,210,179c126,105,161,130,164,115C2174.3,7447,2171.3,7398,2165.3,7348z M5999.3,7441c11-9,79-66,150-125
		c72-59,153-128,180-153c94-84,515-510,515-521s-421-437-515-521c-43-39-231-197-336-282c-43-35-45-28-30,97c23,200,34,688,21,1021
		c-6,176-16,349-21,385C5945.3,7473,5949.3,7483,5999.3,7441z M2610.3,5279c332-221,675-419,1026-590c103-51,186-96,185-101
		c-7-23-495-193-747-260c-141-37-170-45-245-61c-44-9-95-22-113-27c-19-6-37-6-41-2c-4,5-20,50-35,99c-15,50-31,101-36,115
		c-34,106-67,236-110,430c-7,33-39,196-60,305c-21,111-36,225-30,225C2407.3,5412,2500.3,5352,2610.3,5279z M5718.3,5335
		c-40-245-62-357-108-558c-9-38-20-86-25-105s-17-62-26-95s-20-73-25-90c-5-16-15-52-23-80c-28-93-50-160-57-168c-4-5-25-4-46,2
		c-22,5-91,22-154,36c-63,15-128,31-145,35c-16,5-57,17-90,26c-256,71-705,229-712,250c-1,5,82,50,185,101c357,175,718,383,1030,594
		c103,70,192,127,198,128C5727.3,5412,5726.3,5388,5718.3,5335z M4185.3,4442c52-23,112-47,134-55s72-26,110-40
		c82-31,363-125,450-150c33-10,78-23,100-30c59-19,332-85,349-85c8,0,26-4,40-10l25-9l-25-68c-14-37-39-96-55-131s-29-66-29-69
		c0-6-120-246-150-298c-112-199-260-395-396-524c-156-150-296-237-459-287c-77-23-107-27-215-27c-112,0-135,3-225,31
		c-377,118-731,513-998,1112c-44,99-58,131-81,193l-25,68l25,9c14,6,32,10,40,10c17,0,290,66,349,85c22,7,67,20,100,30
		c90,26,371,119,450,150c39,15,78,29,88,32s69,27,130,53c62,27,126,48,143,49S4133.3,4464,4185.3,4442z"/>
</g>
<circle class="st1" cx="54.8" cy="205.3" r="46.3"/>
<circle class="st1" cx="54.8" cy="611.8" r="46.3"/>
<circle class="st1" cx="758.2" cy="611.8" r="46.3"/>
<circle class="st1" cx="758.2" cy="205.3" r="46.3"/>
</svg>
